name p2_grf_mean_speed_1.2
datacolumns 13
datarows 57
range 0.0000000000 0.5600000000
endheader
time	grf_x_l_mean	grf_x_l_var	grf_y_l_mean	grf_y_l_var	grf_z_l_mean	grf_z_l_var	grf_x_r_mean	grf_x_r_var	grf_y_r_mean	grf_y_r_var	grf_z_r_mean	grf_z_r_var
0.0000000000	123.0204249378	1.0000000000	686.5616353681	1.0000000000	0.0000000000	0.0000000000	12.0936292529	1.0000000000	10.5951084382	1.0000000000	0.0000000000	0.0000000000
0.0100000000	129.8707611061	1.0000000000	678.4542880147	1.0000000000	0.0000000000	0.0000000000	23.4436913683	1.0000000000	31.4221988919	1.0000000000	0.0000000000	0.0000000000
0.0200000000	135.3459861888	1.0000000000	659.7593754015	1.0000000000	0.0000000000	0.0000000000	32.9891942934	1.0000000000	61.3173212295	1.0000000000	0.0000000000	0.0000000000
0.0300000000	138.6667417171	1.0000000000	629.3691610539	1.0000000000	0.0000000000	0.0000000000	32.0285644206	1.0000000000	95.4846994326	1.0000000000	0.0000000000	0.0000000000
0.0400000000	139.0551494383	1.0000000000	587.1967878691	1.0000000000	0.0000000000	0.0000000000	21.9054144185	1.0000000000	134.2833299900	1.0000000000	0.0000000000	0.0000000000
0.0500000000	137.8515517949	1.0000000000	534.9080401501	1.0000000000	0.0000000000	0.0000000000	8.0505459804	1.0000000000	182.5080265141	1.0000000000	0.0000000000	0.0000000000
0.0600000000	132.8862529785	1.0000000000	473.9160341257	1.0000000000	0.0000000000	0.0000000000	-10.6541035570	1.0000000000	241.6109887228	1.0000000000	0.0000000000	0.0000000000
0.0700000000	124.3824112969	1.0000000000	406.2964172363	1.0000000000	0.0000000000	0.0000000000	-32.7915684835	1.0000000000	308.2382821824	1.0000000000	0.0000000000	0.0000000000
0.0800000000	112.0688247046	1.0000000000	335.7259651925	1.0000000000	0.0000000000	0.0000000000	-55.1437606743	1.0000000000	376.1289151676	1.0000000000	0.0000000000	0.0000000000
0.0900000000	95.0883561002	1.0000000000	264.7600713851	1.0000000000	0.0000000000	0.0000000000	-77.6424435260	1.0000000000	437.9672273264	1.0000000000	0.0000000000	0.0000000000
0.1000000000	75.7382135552	1.0000000000	196.9671700891	1.0000000000	0.0000000000	0.0000000000	-97.4914604218	1.0000000000	491.7071166092	1.0000000000	0.0000000000	0.0000000000
0.1100000000	55.3499683362	1.0000000000	137.4568381313	1.0000000000	0.0000000000	0.0000000000	-113.6879312042	1.0000000000	540.2401770333	1.0000000000	0.0000000000	0.0000000000
0.1200000000	36.6364112783	1.0000000000	88.2900636331	1.0000000000	0.0000000000	0.0000000000	-126.6787422112	1.0000000000	584.0924128639	1.0000000000	0.0000000000	0.0000000000
0.1300000000	22.5962432086	1.0000000000	50.0004829920	1.0000000000	0.0000000000	0.0000000000	-133.8558535844	1.0000000000	621.6515994723	1.0000000000	0.0000000000	0.0000000000
0.1400000000	12.3691207717	1.0000000000	23.3759147139	1.0000000000	0.0000000000	0.0000000000	-135.7680909825	1.0000000000	652.7460568403	1.0000000000	0.0000000000	0.0000000000
0.1500000000	6.1657796170	1.0000000000	7.1342164081	1.0000000000	0.0000000000	0.0000000000	-133.2384779199	1.0000000000	677.1475838870	1.0000000000	0.0000000000	0.0000000000
0.1600000000	0.0000000000	1.0000000000	0.0000000000	1.0000000000	0.0000000000	0.0000000000	-126.6563330216	1.0000000000	694.2552068292	1.0000000000	0.0000000000	0.0000000000
0.1700000000	0.0000000000	1.0000000000	0.0000000000	1.0000000000	0.0000000000	0.0000000000	-118.0451484270	1.0000000000	703.8502250344	1.0000000000	0.0000000000	0.0000000000
0.1800000000	0.0000000000	1.0000000000	0.0000000000	1.0000000000	0.0000000000	0.0000000000	-107.9801220645	1.0000000000	705.6952472412	1.0000000000	0.0000000000	0.0000000000
0.1900000000	0.0000000000	1.0000000000	0.0000000000	1.0000000000	0.0000000000	0.0000000000	-97.2126751625	1.0000000000	699.4057129458	1.0000000000	0.0000000000	0.0000000000
0.2000000000	0.0000000000	1.0000000000	0.0000000000	1.0000000000	0.0000000000	0.0000000000	-86.8593551097	1.0000000000	684.4904748795	1.0000000000	0.0000000000	0.0000000000
0.2100000000	0.0000000000	1.0000000000	0.0000000000	1.0000000000	0.0000000000	0.0000000000	-76.6663773742	1.0000000000	661.4852607206	1.0000000000	0.0000000000	0.0000000000
0.2200000000	0.0000000000	1.0000000000	0.0000000000	1.0000000000	0.0000000000	0.0000000000	-67.0034029652	1.0000000000	632.6351706340	1.0000000000	0.0000000000	0.0000000000
0.2300000000	0.0000000000	1.0000000000	0.0000000000	1.0000000000	0.0000000000	0.0000000000	-58.0905582346	1.0000000000	600.8171426888	1.0000000000	0.0000000000	0.0000000000
0.2400000000	0.0000000000	1.0000000000	0.0000000000	1.0000000000	0.0000000000	0.0000000000	-49.6433860095	1.0000000000	569.0181195281	1.0000000000	0.0000000000	0.0000000000
0.2500000000	0.0000000000	1.0000000000	0.0000000000	1.0000000000	0.0000000000	0.0000000000	-41.7655645578	1.0000000000	539.3400077718	1.0000000000	0.0000000000	0.0000000000
0.2600000000	0.0000000000	1.0000000000	0.0000000000	1.0000000000	0.0000000000	0.0000000000	-34.4649375332	1.0000000000	513.1628678206	1.0000000000	0.0000000000	0.0000000000
0.2700000000	0.0000000000	1.0000000000	0.0000000000	1.0000000000	0.0000000000	0.0000000000	-27.8701634285	1.0000000000	491.8404605528	1.0000000000	0.0000000000	0.0000000000
0.2800000000	0.0000000000	1.0000000000	0.0000000000	1.0000000000	0.0000000000	0.0000000000	-21.7875270271	1.0000000000	475.4574200033	1.0000000000	0.0000000000	0.0000000000
0.2900000000	0.0000000000	1.0000000000	0.0000000000	1.0000000000	0.0000000000	0.0000000000	-16.0975121841	1.0000000000	463.5044361206	1.0000000000	0.0000000000	0.0000000000
0.3000000000	0.0000000000	1.0000000000	0.0000000000	1.0000000000	0.0000000000	0.0000000000	-11.0267057776	1.0000000000	456.0478181026	1.0000000000	0.0000000000	0.0000000000
0.3100000000	0.0000000000	1.0000000000	0.0000000000	1.0000000000	0.0000000000	0.0000000000	-6.2351120611	1.0000000000	452.7058003190	1.0000000000	0.0000000000	0.0000000000
0.3200000000	0.0000000000	1.0000000000	0.0000000000	1.0000000000	0.0000000000	0.0000000000	-1.7622463315	1.0000000000	452.7595528430	1.0000000000	0.0000000000	0.0000000000
0.3300000000	0.0000000000	1.0000000000	0.0000000000	1.0000000000	0.0000000000	0.0000000000	2.4761796384	1.0000000000	455.4464894722	1.0000000000	0.0000000000	0.0000000000
0.3400000000	0.0000000000	1.0000000000	0.0000000000	1.0000000000	0.0000000000	0.0000000000	6.7643889201	1.0000000000	460.1943295841	1.0000000000	0.0000000000	0.0000000000
0.3500000000	0.0000000000	1.0000000000	0.0000000000	1.0000000000	0.0000000000	0.0000000000	10.9659047351	1.0000000000	466.9555020706	1.0000000000	0.0000000000	0.0000000000
0.3600000000	0.0000000000	1.0000000000	0.0000000000	1.0000000000	0.0000000000	0.0000000000	15.3763978062	1.0000000000	475.3026531220	1.0000000000	0.0000000000	0.0000000000
0.3700000000	0.0000000000	1.0000000000	0.0000000000	1.0000000000	0.0000000000	0.0000000000	20.1382416489	1.0000000000	484.7854514792	1.0000000000	0.0000000000	0.0000000000
0.3800000000	0.0000000000	1.0000000000	0.0000000000	1.0000000000	0.0000000000	0.0000000000	25.1846855958	1.0000000000	495.9874827370	1.0000000000	0.0000000000	0.0000000000
0.3900000000	0.0000000000	1.0000000000	0.0000000000	1.0000000000	0.0000000000	0.0000000000	30.8418860411	1.0000000000	509.2812027373	1.0000000000	0.0000000000	0.0000000000
0.4000000000	0.0000000000	1.0000000000	0.0000000000	1.0000000000	0.0000000000	0.0000000000	36.9812101088	1.0000000000	524.3211893627	1.0000000000	0.0000000000	0.0000000000
0.4100000000	0.0000000000	1.0000000000	0.0000000000	1.0000000000	0.0000000000	0.0000000000	43.5836508887	1.0000000000	541.0863636795	1.0000000000	0.0000000000	0.0000000000
0.4200000000	0.0000000000	1.0000000000	0.0000000000	1.0000000000	0.0000000000	0.0000000000	50.7997982811	1.0000000000	559.4889545197	1.0000000000	0.0000000000	0.0000000000
0.4300000000	0.0000000000	1.0000000000	0.0000000000	1.0000000000	0.0000000000	0.0000000000	58.4033865822	1.0000000000	578.8259360433	1.0000000000	0.0000000000	0.0000000000
0.4400000000	0.0000000000	1.0000000000	0.0000000000	1.0000000000	0.0000000000	0.0000000000	66.5064803483	1.0000000000	598.3010769572	1.0000000000	0.0000000000	0.0000000000
0.4500000000	0.0000000000	1.0000000000	0.0000000000	1.0000000000	0.0000000000	0.0000000000	75.0997474803	1.0000000000	617.1399996409	1.0000000000	0.0000000000	0.0000000000
0.4600000000	0.0000000000	1.0000000000	0.0000000000	1.0000000000	0.0000000000	0.0000000000	83.9794018902	1.0000000000	634.4214563712	1.0000000000	0.0000000000	0.0000000000
0.4700000000	0.0000000000	1.0000000000	0.0000000000	1.0000000000	0.0000000000	0.0000000000	93.1819808363	1.0000000000	648.8255174150	1.0000000000	0.0000000000	0.0000000000
0.4800000000	5.3237317538	1.0000000000	2.6668723319	1.0000000000	0.0000000000	0.0000000000	102.4102716098	1.0000000000	658.4161911482	1.0000000000	0.0000000000	0.0000000000
0.4900000000	12.4224354213	1.0000000000	14.3678347559	1.0000000000	0.0000000000	0.0000000000	111.3075489259	1.0000000000	661.2656148097	1.0000000000	0.0000000000	0.0000000000
0.5000000000	21.4469475170	1.0000000000	34.6172337809	1.0000000000	0.0000000000	0.0000000000	119.5368016374	1.0000000000	655.9102042077	1.0000000000	0.0000000000	0.0000000000
0.5100000000	28.3434623483	1.0000000000	62.2571275118	1.0000000000	0.0000000000	0.0000000000	126.4449453472	1.0000000000	641.1264552368	1.0000000000	0.0000000000	0.0000000000
0.5200000000	28.1819548090	1.0000000000	94.3655686280	1.0000000000	0.0000000000	0.0000000000	131.5388464083	1.0000000000	616.1467193893	1.0000000000	0.0000000000	0.0000000000
0.5300000000	20.5590071413	1.0000000000	130.6554165176	1.0000000000	0.0000000000	0.0000000000	134.5321902504	1.0000000000	581.2650154253	1.0000000000	0.0000000000	0.0000000000
0.5400000000	7.9945426936	1.0000000000	174.2846103330	1.0000000000	0.0000000000	0.0000000000	135.3524385462	1.0000000000	537.6739376557	1.0000000000	0.0000000000	0.0000000000
0.5500000000	-8.7781754088	1.0000000000	227.5551311579	1.0000000000	0.0000000000	0.0000000000	133.4217366516	1.0000000000	486.4621697492	1.0000000000	0.0000000000	0.0000000000
0.5600000000	-29.2051117017	1.0000000000	288.2964971045	1.0000000000	0.0000000000	0.0000000000	128.5299860436	1.0000000000	428.7526426714	1.0000000000	0.0000000000	0.0000000000
